<?xml version="1.0" encoding="UTF-8"?>
<svg version="1.1" viewBox="0 0 2048 738" width="1280" height="1280" xmlns="http://www.w3.org/2000/svg">
<path transform="translate(1928,74)" d="m0 0h4l-2 4-9 11-16 17-9 10-13 13-7 8-15 16-7 8-9 10-14 15-10 10-2 1-216 1-13 2-11 6-13 12-10 14-5 12-1 5v17l3 11 4 8 9 11 10 9 12 6 7 2 8 1 254 1 23 3 21 5 16 6 16 8 16 12 13 10 12 11 9 10 10 13 9 14 9 19 8 21 4 18 2 25v13l-2 21-3 16-7 21-10 21-12 18-9 12-11 13-10 9-11 8-15 10-12 7-23 9-29 6-18 2h-640l2-4 48-48 1-2h2l2-4 17-17 7-8 7-7 8-7 25-25 520-1 12-3 11-6 14-12 6-9 5-13 1-5v-17l-4-16-6-11-10-10-13-8-7-3-13-2-254-1-24-3-25-7-18-8-11-6-16-12-13-10-12-11-11-14-10-13-5-8v-2h-2l-2 5-22 22h-2v2l-18 18-7 8-12 13-7 8-15 16-28 28-9 11-9 10-12 13-8 8h-2l-2 4h-2l-1 3h-2l-2 4-11 11-7 8-12 13-7 8-18 18-14 11-15 13-17 14-18 14-15 9-14 9-24 13-16 7-23 6-30 4h-51l-32-5-17-4-27-10-29-14-22-14-14-11-16-15-12-11-10-10-9-11-10-13-13-21-10-18-10-21-9-23-7-26-4-20v-3l-8 7h-2l-2 4-29 29-8 7-12 12-7 8-9 9-8 7-27 27-8 7-47 47h-2l-2 4-13 12-10 9-5 5-10 11h-2v-169l-1-1-1-258-6 7-14 20-7 12-12 19-16 29-14 26-17 33-8 16-9 15-14 24-7 11-7 9-8 9-12 9-11 5-9 2h-21l-13-5-12-8-11-10-5-5-8-9-17-26-13-21-9-16-8-16-9-17-13-22-13-25-13-23-12-23-10-17-9-6-4-1v479h-131l-1-1v-518l2-10 17-34 8-18 7-15 2-3h165l8 4 10 9 7 7 9 11 11 16 9 16 9 19 9 16 8 13 12 21 14 26 10 14 4-1 7-7 13-18 12-22 14-27 12-25 12-28 4-9 12-11 11-9 14-10 9-5 9-1h27l126 1 10 19 12 22 15 28 1 153 1 24 6-5 7-8 14-15 8-7 16-16 7-8 27-27 8-7 28-28 7-8 5-5h2l2-4 14-14h2v-2l8-7 8-8 11-9 13-11 17-12 15-9 27-13 23-9 22-6 18-4 20-3 15-1h38l24 2 24 4 25 7 22 8 27 12 14 8 16 11 18 14 10 8 12 11 6 5 7 8 3 5-13 12-14 13-8 7-13 11-10 9-11 9-15 13-5 4-4-2-14-11-15-12-19-12-27-13-27-7-18-2h-27l-17 2-20 5-13 5-25 12-13 9-13 11-10 9-36 36-8 16-7 17-4 18-3 21v30l3 22 4 18 6 17 8 16 8 14 12 16 19 19 11 9 16 11 17 8 19 7 20 4 7 1h34l24-5 16-6 19-10 13-10 13-11 14-12 11-11 9-11 24-24 7-8 7-7 7-8 14-15 12-13 12-12 7-8 11-11 1-2h2l2-4 12-12 9-11 29-29 1-2h2l2-4 8-8 8-10h2l2-4 10-10 7-8 16-16 7-8 14-14 7-8 12-13 7-8 26-26 7-8 15-16 18-20 9-9 8-7 18-13 18-10 14-6 17-5 19-3 11-1h137z" fill="#C2D4DD"/>
<path transform="translate(476,76)" d="m0 0h27l126 1 10 19 12 22 14 26 1 180-46 46-8 7-54 54-8 7-16 16h-2v-219l-1-33h-3l-8 10-12 18-12 20-9 14-14 26-12 22-18 35-8 16-9 15-14 24-7 11-7 9-8 9-12 9-11 5-9 2h-21l-13-5-12-8-11-10-5-5-8-9-17-26-13-21-9-16-8-16-9-17-13-22-13-25-13-23-12-23-10-17-9-6-4-1v479h-131l-1-1v-518l2-10 17-34 8-18 7-15 2-3h165l8 4 10 9 7 7 9 11 11 16 9 16 9 19 9 16 8 13 12 21 14 26 10 14 4-1 7-7 13-18 12-22 14-27 12-25 12-28 4-9 12-11 11-9 14-10 9-5z" fill="#0A60A0"/>
<path transform="translate(1548,252)" d="m0 0h1l1 14 3 11 4 8 9 11 10 9 12 6 7 2 8 1 254 1 23 3 21 5 16 6 16 8 16 12 13 10 12 11 9 10 10 13 9 14 9 19 8 21 4 18 2 25v13l-2 21-3 16-7 21-10 21-12 18-9 12-11 13-10 9-11 8-15 10-12 7-23 9-29 6-18 2h-640l2-4 48-48 1-2h2l2-4 17-17 7-8 7-7 8-7 25-25 520-1 12-3 11-6 14-12 6-9 5-13 1-5v-17l-4-16-6-11-10-10-13-8-7-3-13-2-254-1-24-3-25-7-18-8-11-6-16-12-13-10-12-11-11-14v-3l12-16 14-18 12-16 11-14 10-13 13-18 9-11z" fill="#C2D5DE"/>
<path transform="translate(868,296)" d="m0 0 3 1-3 9-5 12h-2l-1 4-5 3-9 11-24 28-7 8-12 14-7 9-20 25-13 15-13 13-4-1-4-20v-5l14-15 10-10 6-5 73-73 7-8 3-3h2v-2h2l2-4z" fill="#AFBDC6"/>
<path transform="translate(1551,235)" d="m0 0h2l-2 9-3 11-8 9-11 15-14 19-10 12-15 20-26 34h-2l-12-17-1-6 11-11 7-8 33-33 7-8 9-11h2l2-4 15-16 7-8z" fill="#AFBDC6"/>
<path transform="translate(530,201)" d="m0 0 2 1 1 33v141l-1 78 2 1-4 2z" fill="#AFBDC6"/>
</svg>
