<?xml version="1.0" encoding="UTF-8"?>
<svg version="1.1" viewBox="0 0 2048 723" width="1280" height="1280" xmlns="http://www.w3.org/2000/svg">
<path transform="translate(167,117)" d="m0 0h303l18 6 13 7 12 9 10 10 9 14 6 13 4 14 1 7v287l-4 27-4 15-8 19-7 13-12 17-12 13-10 9-14 10-18 10-20 8-11 3-4-1 11-14 10-15 10-17 12-25 10-30 4-19 1-15v-269l-1-19-6-12-9-6-7-2h-267l-8 3-8 6-6 11-2 12v267l2 13 5 16 8 16 11 14 9 8 14 9 16 7 15 3 16 1 18-2 15-5 13-7 10-8 9-9 2-4-11-1-21-5-15-6-11-6-13-10-8-8-9-13-7-14-5-19-1-36v-163l4-6h180l5 4v239l-4 21-6 18-8 17-10 16-13 16-9 10-8 7-14 12-14 8-22 9-19 5-8 1h-44l-17-3-18-6-20-9-13-7-12-9-14-12-10-11-10-14-9-16-8-21-4-19v-317l5-17 9-17 12-14 13-10 15-8zm147 171-10 3-8 5-6 7-3 7v141l5 10 8 7 11 4h18l12-5 5-4 5-8 2-7v-135l-3-9-6-8-10-6-8-2z" fill="#045CA6"/>
<path transform="translate(619,117)" d="m0 0h90l8 6 8 8 10 15 12 23 13 23 11 18 4-2 7-9 9-16 9-17 12-27 9-10 10-8 7-4h88l17 32 3 5v288l-1 1h-72v-258l-5 5-10 15-16 28-18 34-10 19-7 11-7 9-9 8-10 4h-15l-8-4-10-9-9-10-11-17-16-29-15-28-13-23-6-10-5-5-1 1-1 258-1 1h-69l-1-1v-285l16-34z" fill="#055CA6"/>
<path transform="translate(1274,117)" d="m0 0h219l14 4 13 7 10 8 9 10 8 16 3 9 2 15v40l-5 15-9 16-11 12-11 8-13 6-6 2 15 13 14 12 13 11 4 4v117l-1 1h-82l-1-1v-126h-103l1 36v90l-1 1h-82l-1-2v-323zm84 38-1 1v124h102v-124l-5-1z" fill="#065DA7"/>
<path transform="translate(1030,117)" d="m0 0h159l7 7 8 7 15 14 13 12 4 4v281l-1 1h-82l-1-3v-125h-85v39l-1 88-1 1h-81l-1-1v-282l16-15 13-12 12-11zm37 39v124h86v-124z" fill="#065DA7"/>
<path transform="translate(1741,117)" d="m0 0h158l11 9 10 10 8 7 16 15 2 2v282l-1 1h-81l-1-1v-127h-85l-1 127-1 1h-82l-1-281 7-8 8-7 17-16 10-9zm37 39v124h86v-124z" fill="#055CA6"/>
<path transform="translate(1579,118)" d="m0 0h83l1 1v324h-84z" fill="#035BA6"/>
<path transform="translate(596,467)" d="m0 0h1351l1 1v7h-1353v-7z" fill="#1D6CAF"/>
<path transform="translate(1725,506)" d="m0 0h16l14 22 19 29 3 5 1-56h14v79l-5 1h-11l-7-10-11-17-13-20-5-8-1 54-1 1h-13z" fill="#565A61"/>
<path transform="translate(1371,506)" d="m0 0h16l7 10 16 25 14 21v-56h14v79l-4 1h-11l-7-9-12-19-15-23-3-5v55l-14 1-1-2z" fill="#5E6065"/>
<path transform="translate(1068,506)" d="m0 0h16l8 11 10 16 10 15 9 14v-56h14v80h-15l-8-11-11-17-13-20-5-8v54l-5 2h-9l-1-44z" fill="#5C5E63"/>
<path transform="translate(788,504)" d="m0 0h10l9 2 8 4 8 8 5 11 2 8v17l-3 12-6 9-8 7-9 4-5 1h-16l-10-3-8-6-6-8-4-9-1-4v-23l5-13 9-10 10-5zm-2 12-8 4-6 7-3 7-1 5v13l4 13 5 6 8 4h13l8-4 6-7 3-8v-20l-3-9-7-8-8-3z" fill="#595B61"/>
<path transform="translate(1666,504)" d="m0 0h10l12 3 10 7 6 9 3 9 1 5v17l-3 12-6 9-8 7-9 4-5 1h-17l-10-4-8-6-6-9-4-12v-21l4-12 6-8 7-6 10-4zm-1 12-8 3-7 8-3 8-1 5v10l3 13 6 8 8 4h13l10-5 5-7 3-13-1-14-4-11-8-7-6-2z" fill="#595C62"/>
<path transform="translate(1297,506)" d="m0 0h35l11 4 6 5 4 9v12l-4 9-8 7-5 1 6 9 13 18 2 3v3h-15l-9-12-11-16-2-2h-8v29l-6 1h-8l-1-1zm15 11-1 1v26h18l6-4 3-4 1-7-3-7-5-4-5-1z" fill="#5E6065"/>
<path transform="translate(686,506)" d="m0 0h34l10 3 8 7 3 7 1 10-3 9-5 7-7 4h-3l13 18 9 12v3h-15l-4-4-16-23-3-3-8-1v30l-1 1h-12l-1-1zm14 11v27h17l7-4 3-6v-7l-3-6-5-3-5-1z" fill="#5A5D63"/>
<path transform="translate(634,504)" d="m0 0h12l12 3 7 4-1 5-4 6-10-4-6-1h-9l-8 3-6 5-4 11-1 11 2 13 4 8 5 4 6 2h13l7-1v-21h-18l1-11h32v38l-1 2-14 5-6 1h-18l-11-4-7-5-7-11-3-11v-19l3-12 6-9 8-7 10-4z" fill="#5C5F64"/>
<path transform="translate(1834,506)" d="m0 0h17l4 9 17 46 8 22v3h-14l-4-8-4-12-2-1h-29l-7 20-1 1h-13l-1-3 28-76zm7 15-10 29v3h23l-10-30-1-2z" fill="#5C5F64"/>
<path transform="translate(1480,506)" d="m0 0h18l7 18 22 60-1 2h-14l-4-10-4-11h-30l-7 19-2 2-14-1 11-30 17-47zm8 14-11 33h23l-3-11-7-21z" fill="#5B5E63"/>
<path transform="translate(845,506)" d="m0 0h14l1 53 4 10 6 4 3 1h12l6-3 4-4 2-6 1-55h14v57l-4 10-7 8-8 4-7 2h-17l-10-4-8-7-5-10-1-4z" fill="#56595F"/>
<path transform="translate(931,506)" d="m0 0h36l11 4 5 4 5 10v13l-3 8-6 7-9 4-4 1h-21v28l-1 1h-12l-1-1zm15 11-1 1v27l1 1h16l8-4 3-4 1-10-3-6-5-4-5-1z" fill="#5D5F64"/>
<path transform="translate(1229,506)" d="m0 0h50v11h-36v22h31l1 2-1 9-1 1h-30v23h37v11l-50 1-1-1-1-78z" fill="#585C61"/>
<path transform="translate(1521,506)" d="m0 0h67v12h-26v67l-3 1h-11v-68h-27z" fill="#5E6065"/>
<path transform="translate(1149,506)" d="m0 0h66v12h-26v67l-5 1h-8l-1-1v-67h-26z" fill="#5C5E63"/>
<path transform="translate(1893,506)" d="m0 0h14v67h37l1 1v11l-7 1h-44l-1-4z" fill="#65676C"/>
<path transform="translate(1600,505)" d="m0 0h16v82h-16z" fill="#55575C"/>
<path transform="translate(1032,505)" d="m0 0h16v82h-16z" fill="#55575C"/>
</svg>
